<svg viewBox="0 0 96 96" xmlns="http://www.w3.org/2000/svg" xmlns:xlink="http://www.w3.org/1999/xlink" id="Icons_Suit" overflow="hidden"><path d="M48 69C46.9 69 46 68.1 46 67 46 65.9 46.9 65 48 65 49.1 65 50 65.9 50 67 50 68.1 49.1 69 48 69ZM48 76C46.9 76 46 75.1 46 74 46 72.9 46.9 72 48 72 49.1 72 50 72.9 50 74 50 75.1 49.1 76 48 76ZM76.9 28.4C76.1 21 70.5 15.3 63.3 14.2L67.8 23.1C68.1 23.7 68.1 24.5 67.7 25.1L43 64.6 43 82 67 82 67 49.3 69.9 77.6C70 78.1 70.4 78.5 71 78.5L80.9 77.5C81.4 77.4 81.8 77 81.8 76.4L76.9 28.4Z" fill="#262626"/><path d="M42.3 39.9 35.5 17.4 32.3 23.9Z" fill="#262626"/><path d="M63.7 23.9 60.5 17.4 53.7 39.9Z" fill="#262626"/><path d="M28.3 25.1C27.9 24.5 27.9 23.8 28.2 23.1L32.7 14.2C25.6 15.3 19.9 21 19.1 28.4L14.1 76.4C14 76.9 14.4 77.4 15 77.5L24.9 78.5C25.4 78.6 25.9 78.2 26 77.6L29 49.3 29 82 39 82 39 64C39 63.6 39.1 63.3 39.3 62.9L45.6 52.8 28.3 25.1Z" fill="#262626"/><path d="M57.3 14 38.7 14 48 45Z" fill="#262626"/></svg>