<svg viewBox="0 0 96 96" xmlns="http://www.w3.org/2000/svg" xmlns:xlink="http://www.w3.org/1999/xlink" id="Icons_LongSleeveShirt" overflow="hidden"><path d="M88.8 78.7 77.3 24C76.6 20.7 74.3 17.9 71.1 16.7L58 11C57.6 10.8 57.2 10.8 56.8 10.9 55.5 11.2 53 15.1 48 15.1 43 15.1 40.5 11.1 39.2 10.9 38.8 10.8 38.4 10.9 38 11L24.9 16.7C21.7 17.9 19.4 20.6 18.7 24L7.2 78.7C6.9 79.9 7.9 81.1 9.2 81.1L17.4 81.1C18.3 81.1 19.1 80.5 19.3 79.5L29 37.1C30.3 53.6 27.3 73.6 26.3 79.4 26.1 80.4 26.7 81.3 27.6 81.6 31 82.7 39.3 85 48 85 56.7 85 64.9 82.7 68.4 81.6 69.3 81.3 69.9 80.4 69.7 79.4 68.7 73.6 65.7 53.5 67 37.1L76.7 79.5C76.9 80.4 77.7 81.1 78.6 81.1L86.8 81.1C88.1 81.1 89 80 88.8 78.7Z" fill="#262626"/></svg>