<svg viewBox="0 0 96 96" xmlns="http://www.w3.org/2000/svg" xmlns:xlink="http://www.w3.org/1999/xlink" id="Icons_Shoe" overflow="hidden"><g><path d="M57.6 62.6 57.2 62.6C54.3 62.2 51.3 61.6 48 60.8 43 59.7 37.7 58.5 32.9 58.5L11 58.5C8.6 58.5 6.8 57.8 5.5 57 4.9 56.6 4 57 4 57.8L4 67.5 27 67.5 29 62.5 33 62.5C37.4 62.5 42.4 63.6 47.2 64.7 50.4 65.4 53.7 66.1 56.7 66.5L57.1 66.5C60.1 66.9 63.4 67.3 67.2 67.3 73.8 67.3 81.7 66 92 60.9L92 58C92 57.3 91.2 56.8 90.5 57.1 75.3 64.8 65.5 63.6 57.6 62.6Z" fill="#262626"/><path d="M85 49.5C76.6 50.4 69.9 48.3 63.8 45.1L60.7 48.2C60.5 48.4 60.2 48.5 60 48.5 59.8 48.5 59.5 48.4 59.3 48.2 58.9 47.8 58.9 47.2 59.3 46.8L62 44.1C60.1 43 58.2 41.8 56.4 40.5L52.7 44.2C52.5 44.4 52.2 44.5 52 44.5 51.8 44.5 51.5 44.4 51.3 44.2 50.9 43.8 50.9 43.2 51.3 42.8L54.8 39.3C53 38 51.3 36.7 49.5 35.4L44.7 40.2C44.5 40.4 44.2 40.5 44 40.5 43.8 40.5 43.5 40.4 43.3 40.2 42.9 39.8 42.9 39.2 43.3 38.8L47.9 34.2C45 32.1 42 30.2 38.9 28.7 37.5 28.1 36 29 36 30.5L36 33.5C23 38.7 12.8 35.8 8.9 34.2 7.9 33.8 6.7 34.3 6.3 35.3 4.7 39.3 4 45.2 4 47.5 4 52.5 5.6 54.6 6.6 55.3 7.3 55.7 8.8 56.5 11 56.5L33 56.5C38.1 56.5 43.4 57.7 48.5 58.8 51.7 59.5 54.7 60.2 57.5 60.5L57.9 60.5C60.8 60.9 63.7 61.2 67.1 61.2 74.1 61.2 81.3 59.4 88.9 55.7 89.6 55.3 90.1 54.6 90 53.7 89.9 52.4 88.2 49.2 85 49.5Z" fill="#262626"/></g></svg>